<svg width="140" height="140" viewBox="0 0 140 140" fill="none" xmlns="http://www.w3.org/2000/svg">
<rect width="140" height="140" fill="#CBF6F2"/>
<g clip-path="url(#clip0_110_14817)">
<path d="M79.1307 98.9999C79.1307 101.67 76.9707 103.83 74.3007 103.83C71.6307 103.83 69.4707 101.66 69.4707 98.9999C69.4707 96.3399 71.6307 94.1699 74.3007 94.1699C76.9707 94.1699 79.1307 96.3399 79.1307 98.9999Z" stroke="#0D4F92" stroke-width="2.16" stroke-linecap="round" stroke-linejoin="round"/>
<path d="M70.5194 61.4902C70.5194 64.1602 68.3594 66.3202 65.6894 66.3202C63.0194 66.3202 60.8594 64.1502 60.8594 61.4902C60.8594 58.8302 63.0194 56.6602 65.6894 56.6602C68.3594 56.6602 70.5194 58.8302 70.5194 61.4902Z" stroke="#0D4F92" stroke-width="2.16" stroke-linecap="round" stroke-linejoin="round"/>
<path d="M77.9297 73.4096C78.1297 75.1096 76.9197 76.6496 75.2097 76.8496C73.5097 77.0496 71.9697 75.8396 71.7697 74.1296C71.5697 72.4296 72.7797 70.8896 74.4897 70.6896C76.1897 70.4896 77.7297 71.6996 77.9297 73.4096Z" stroke="#0D4F92" stroke-width="2.16" stroke-linecap="round" stroke-linejoin="round"/>
<path d="M58.6406 86.1406H60.3206" stroke="#0D4F92" stroke-width="2.16" stroke-linecap="round" stroke-linejoin="round"/>
<path d="M66.3906 86.1406H67.9906" stroke="#0D4F92" stroke-width="2.16" stroke-linecap="round" stroke-linejoin="round"/>
<path d="M65.6897 90.269L64.9297 88.959" stroke="#0D4F92" stroke-width="2.16" stroke-linecap="round" stroke-linejoin="round"/>
<path d="M60.7715 90.2702L61.5615 88.9102" stroke="#0D4F92" stroke-width="2.16" stroke-linecap="round" stroke-linejoin="round"/>
<path d="M65.6904 81.9199L64.9004 83.2799" stroke="#0D4F92" stroke-width="2.16" stroke-linecap="round" stroke-linejoin="round"/>
<path d="M60.7715 81.9199L61.5615 83.2799" stroke="#0D4F92" stroke-width="2.16" stroke-linecap="round" stroke-linejoin="round"/>
<path d="M65.0106 99.81C65.1306 100.87 64.3806 101.82 63.3206 101.95C62.2606 102.07 61.3106 101.32 61.1806 100.26C61.0606 99.2 61.8106 98.25 62.8706 98.12C63.9306 98 64.8806 98.75 65.0106 99.81Z" fill="#0D4F92"/>
<path d="M79.6199 84.5893C79.7399 85.6493 78.9899 86.5993 77.9299 86.7293C76.8699 86.8493 75.9199 86.0993 75.7899 85.0393C75.6699 83.9793 76.4199 83.0293 77.4799 82.8993C78.5399 82.7793 79.4899 83.5293 79.6199 84.5893Z" fill="#0D4F92"/>
<path d="M64.45 73.9C64.57 74.96 63.82 75.91 62.76 76.04C61.7 76.16 60.75 75.41 60.62 74.35C60.5 73.29 61.25 72.34 62.31 72.21C63.37 72.09 64.32 72.84 64.45 73.9Z" fill="#0D4F92"/>
<path d="M80.8407 62.2592C80.9607 63.3192 80.2106 64.2692 79.1507 64.3992C78.0907 64.5192 77.1407 63.7692 77.0107 62.7092C76.8907 61.6492 77.6407 60.6992 78.7007 60.5692C79.7607 60.4492 80.7107 61.1992 80.8407 62.2592Z" fill="#0D4F92"/>
<path d="M63.0293 36.2307V40.3407L60.5993 42.1607C56.2993 45.3807 53.8893 49.9407 53.9893 54.7007C54.0393 57.2407 54.0893 60.1907 54.0893 63.1307V106.631C54.0893 109.221 56.6693 111.321 59.8493 111.321H73.3193H79.6193C82.7993 111.321 85.3793 109.221 85.3793 106.631V63.1307C85.3793 60.2007 85.4193 57.2507 85.4793 54.7007C85.5793 49.9407 83.1793 45.3807 78.8693 42.1607L76.4393 40.3407V38.8207V38.2907V36.2207" stroke="#0D4F92" stroke-width="2" stroke-miterlimit="10"/>
<path d="M76.5693 29H62.9193C62.2897 29 61.7793 29.5104 61.7793 30.14V35.09C61.7793 35.7196 62.2897 36.23 62.9193 36.23H76.5693C77.1989 36.23 77.7093 35.7196 77.7093 35.09V30.14C77.7093 29.5104 77.1989 29 76.5693 29Z" stroke="#0D4F92" stroke-width="2" stroke-miterlimit="10"/>
<path d="M69.4607 49.6391C76.773 49.6391 82.7007 48.5154 82.7007 47.1291C82.7007 45.7429 76.773 44.6191 69.4607 44.6191C62.1485 44.6191 56.2207 45.7429 56.2207 47.1291C56.2207 48.5154 62.1485 49.6391 69.4607 49.6391Z" stroke="#0D4F92" stroke-width="2" stroke-miterlimit="10"/>
</g>
<defs>
<clipPath id="clip0_110_14817">
<rect width="33.5" height="84.32" fill="white" transform="translate(53 28)"/>
</clipPath>
</defs>
</svg>
