<svg width="140" height="140" viewBox="0 0 140 140" fill="none" xmlns="http://www.w3.org/2000/svg">
<rect width="140" height="140" fill="#B8DAF9"/>
<path d="M70.0031 33.1604C90.3155 33.1604 106.846 49.6845 106.846 70.0031C106.846 90.3216 90.3216 106.846 70.0031 106.846C49.6845 106.846 33.1604 90.3155 33.1604 70.0031C33.1604 49.6906 49.6845 33.1604 70.0031 33.1604ZM70.0031 31C48.4605 31 31 48.4605 31 70.0031C31 91.5456 48.4605 109 70.0031 109C91.5456 109 109 91.5395 109 70.0031C109 48.4666 91.5395 31 70.0031 31Z" fill="#0D4F92"/>
<path d="M78.0961 79.3236C81.3413 79.03 85.028 79.3725 89.5863 80.9672C90.1726 81.1725 90.4814 81.8149 90.2762 82.4013C90.0709 82.9872 89.4298 83.2959 88.8436 83.0912C84.5678 81.5954 81.2024 81.302 78.2982 81.5649C75.3689 81.83 72.8637 82.6611 70.2284 83.5087C67.617 84.3486 64.8845 85.2016 61.684 85.3515C58.6642 85.4929 55.2832 85.0087 51.1869 83.4032L50.3578 83.0663L50.2538 83.0165C49.7532 82.744 49.5307 82.1312 49.7557 81.5942C49.981 81.0572 50.5741 80.7864 51.1195 80.9526L51.2279 80.9921L52.0057 81.307C55.8411 82.8106 58.9079 83.228 61.5785 83.1029C64.4477 82.9686 66.9234 82.2087 69.5399 81.3671C72.1326 80.5332 74.876 79.6151 78.0961 79.3236Z" fill="#0D4F92"/>
<path d="M78.0961 54.7279C81.3413 54.4343 85.028 54.7768 89.5863 56.3715C90.1726 56.5768 90.4814 57.2192 90.2762 57.8056C90.0709 58.3915 89.4298 58.7002 88.8436 58.4955C84.5678 56.9996 81.2024 56.7063 78.2982 56.9692C75.3689 57.2343 72.8637 58.0654 70.2284 58.913C67.617 59.7529 64.8845 60.6059 61.684 60.7558C58.6642 60.8972 55.2832 60.413 51.1869 58.8075L50.3578 58.4706L50.2538 58.4208C49.7532 58.1483 49.5307 57.5355 49.7557 56.9984C49.981 56.4615 50.5741 56.1907 51.1195 56.3568L51.2279 56.3964L52.0057 56.7113C55.8411 58.2149 58.9079 58.6323 61.5785 58.5072C64.4477 58.3729 66.9234 57.613 69.5399 56.7714C72.1326 55.9375 74.876 55.0194 78.0961 54.7279Z" fill="#0D4F92"/>
<path d="M79.9339 66.6019C83.8072 66.2757 88.2268 66.7319 93.7445 68.7186L93.3621 69.7762L92.9813 70.8353C87.7404 68.9483 83.6455 68.5465 80.1229 68.8431C76.576 69.1419 73.5594 70.1494 70.3978 71.1796C67.2587 72.2024 63.9843 73.2436 60.1073 73.453C56.4545 73.6503 52.3208 73.1085 47.2518 71.2176L46.2249 70.8221L46.1209 70.7738C45.6153 70.5102 45.3823 69.9012 45.598 69.3602C45.8138 68.8193 46.4018 68.5385 46.95 68.6952L47.0599 68.7318L48.0355 69.1083C52.8499 70.9045 56.6758 71.3861 59.9857 71.2074C63.535 71.0157 66.5545 70.0645 69.7005 69.0394C72.8238 68.0218 76.0852 66.9261 79.9339 66.6019ZM93.7445 68.7186C94.3285 68.9293 94.6312 69.5729 94.4212 70.1571C94.2107 70.7417 93.5659 71.0458 92.9813 70.8353L93.7445 68.7186Z" fill="#0D4F92"/>
</svg>
