<svg width="79" height="80" viewBox="0 0 79 80" fill="none" xmlns="http://www.w3.org/2000/svg">
<path d="M37.8525 19.0391C38.933 19.0565 40.0135 19.0573 41.0938 19.041C41.629 20.4296 42.3442 22.0229 42.9268 23.4062L46.5615 32.0322L57.5547 58.1328C55.1166 58.1696 52.6015 58.1416 50.1572 58.1416C49.4654 56.1827 48.4921 53.9154 47.7119 51.9639C45.9841 53.8484 43.643 54.9377 41.1504 55.3613C40.4831 55.4602 39.8078 55.5007 39.1338 55.4805C36.1696 55.3853 33.2648 54.1409 31.2354 51.9648L28.7803 58.1426L21.3945 58.1416C22.8851 54.4031 24.6191 50.4705 26.1914 46.7383L37.8525 19.0391ZM36.3232 39.1367C35.943 40.0931 34.8821 42.5899 34.7402 43.4736C34.6019 44.379 34.7197 45.305 35.0791 46.1475C35.593 47.3219 36.5554 48.242 37.752 48.7012C38.34 48.927 38.8769 49.0083 39.5029 49.0322C40.9589 48.9199 42.1102 48.5037 43.0947 47.3691C43.9354 46.3951 44.3515 45.1246 44.249 43.8418C44.1895 43.1264 43.0471 39.9154 42.6689 39.2559C42.0438 38.1648 39.9843 31.849 39.4473 31.2959L36.3232 39.1367Z" fill="#0D4F92"/>
<path d="M12.9422 11.4374C14.1561 11.4799 15.3024 12.0084 16.1229 12.9042C17.1376 14.0042 17.3952 15.1631 17.3299 16.6073C17.8289 16.6809 18.4589 16.8287 18.9627 16.9315C18.8443 17.3358 18.7348 17.9573 18.6463 18.3837C18.075 18.2544 17.4745 18.1371 16.8992 18.0165C16.373 19.0033 15.817 19.5193 14.8514 20.0526C14.4825 20.2314 13.9535 20.3868 13.5516 20.4501C12.3562 20.6317 11.1381 20.3242 10.1717 19.5976C9.17294 18.8454 8.51093 17.7293 8.32989 16.4921C8.1671 15.2886 8.49527 14.0696 9.24005 13.1102C10.0352 12.0908 11.0743 11.6013 12.3367 11.4481C12.5343 11.4299 12.7439 11.432 12.9422 11.4374ZM15.6736 16.2636C15.4889 14.3425 14.2325 13.0144 12.2322 13.1591C11.4274 13.3611 10.8118 13.672 10.367 14.414C10.0021 15.0224 9.89689 15.7525 10.075 16.4393C10.5884 18.4619 12.7939 19.4308 14.6082 18.2372L15.2 17.6845C14.7636 17.5989 14.1055 17.4486 13.6805 17.4003L13.9598 15.9247C14.5297 16.0441 15.1012 16.1572 15.6736 16.2636Z" fill="#0D4F92"/>
<path d="M59.1543 4.76172C60.2997 5.59723 61.7852 6.29151 62.7686 7.2998C64.1233 8.68879 63.1116 11.1245 61.0645 10.9355C62.3042 12.7208 61.1644 14.5858 59.1621 14.8184C57.7442 14.7141 55.6156 13.0304 54.3008 12.1914L59.1543 4.76172ZM56.6611 11.8379C57.2068 12.1993 58.1877 12.9061 58.7715 13.0576C59.1444 13.0071 59.4599 12.9504 59.7041 12.6328C60.3884 11.7427 59.7032 11.1044 58.9912 10.6328C58.6346 10.3998 58.2745 10.1719 57.9111 9.94922L56.6611 11.8379ZM59.7676 7.06738C59.4228 7.63342 59.0799 8.14868 58.71 8.69824C59.2463 9.05263 60.018 9.6159 60.6035 9.79102C61.7287 9.39788 61.9271 8.5379 60.9229 7.80762C60.5582 7.54225 60.1506 7.3074 59.7676 7.06738Z" fill="#0D4F92"/>
<path d="M68.2256 11.6055C68.3776 11.7294 68.8059 12.2377 68.9414 12.4053C70.1329 13.8795 72.1832 15.4442 70.9512 17.5488C70.5387 18.2492 69.8619 18.7549 69.0732 18.9521C68.1973 19.1696 67.5502 18.9847 66.7988 18.5361C66.5202 19.7917 66.1697 21.1134 65.8555 22.3672C65.394 21.8577 64.9355 21.3118 64.4863 20.7891L64.6523 20.1875C64.9316 19.1676 65.2187 18.1496 65.5127 17.1338L65.1133 16.6631C64.3062 17.3523 63.5048 18.0487 62.71 18.752L61.5273 17.3867C63.7107 15.6102 66.0693 13.4694 68.2256 11.6055ZM68.2041 13.9961C67.5524 14.538 66.8257 15.2064 66.1777 15.7188C66.5834 16.1905 67.232 17.0098 67.7451 17.291C68.1539 17.3987 68.4297 17.4147 68.8096 17.1865C70.3791 16.2448 69.1114 14.8535 68.2041 13.9961Z" fill="#0D4F92"/>
<path d="M3.09082 22.2812C6.12046 22.6151 9.45238 22.8095 12.5186 23.0869L11.7314 24.7666C11.0179 24.7194 10.1991 24.6071 9.48828 24.5146C9.02844 25.5289 8.55266 26.5362 8.0625 27.5361L8.50293 27.9287L9.70312 29.0752L8.87109 30.8105C8.46626 30.2819 7.21317 29.0743 6.69336 28.5439L2.27734 24.0303C2.56256 23.4541 2.83359 22.8705 3.09082 22.2812ZM4.3623 23.9434C5.18387 24.7621 6.09341 25.5814 6.88965 26.3965L7.19336 25.7646C7.41146 25.293 7.64475 24.8075 7.85254 24.333L4.3623 23.9434Z" fill="#0D4F92"/>
<path d="M31.2773 0.708008C31.5909 1.20836 32.0173 1.84678 32.3311 2.32129L36.4229 8.52539C35.8647 8.68046 35.1687 8.826 34.5957 8.96094C34.3381 8.45259 33.7573 7.57037 33.4375 7.04297C33.0782 7.13529 32.695 7.21882 32.332 7.30371C31.7151 7.47988 30.8262 7.65359 30.1816 7.80078C30.1608 8.47484 30.0616 9.34287 30.001 10.0293L28.1406 10.4502C28.3031 9.61606 28.4447 8.16582 28.5586 7.28418L29.3584 1.08301L31.0557 0.694336L31.1523 0.667969C31.1937 0.681413 31.236 0.694564 31.2773 0.708008ZM30.6855 2.74512C30.6232 3.68462 30.4993 5.25087 30.3623 6.16895L31.9375 5.80664L32.5869 5.66895C32.3204 5.24612 30.9247 2.87735 30.6855 2.74512Z" fill="#0D4F92"/>
<path d="M75.8291 22.543C76.1083 22.6899 76.5869 23.8933 76.7676 24.2783L70.0723 30.9971C69.9274 30.5087 69.5381 29.7613 69.3018 29.2891L70.2041 28.4365L70.9521 27.7236C70.5488 26.9945 69.9055 25.5169 69.5605 24.7275C68.8449 24.7855 68.0282 24.8981 67.3076 24.9805C67.1381 24.5151 66.7573 23.7354 66.5469 23.2451C69.5276 23.0559 72.576 22.7928 75.5586 22.5596L75.8291 22.543ZM74.5586 24.1963C74.4286 24.1945 74.3758 24.1853 74.25 24.2148L71.1748 24.5479L72.0166 26.377L72.126 26.5303C72.3262 26.4741 74.3286 24.5321 74.5703 24.2686L74.5586 24.1963Z" fill="#0D4F92"/>
<path d="M73.3772 49.2566C75.2144 49.1418 76.7995 50.5322 76.926 52.3689C77.0522 54.2055 75.6723 55.7991 73.8371 55.9373C71.9852 56.076 70.3734 54.6806 70.2463 52.8279C70.1188 50.9754 71.5241 49.3727 73.3772 49.2566ZM74.1877 54.5828C76.8766 53.6532 75.7276 50.2153 72.9875 50.618C72.3929 50.8217 71.9387 51.0747 71.6447 51.6805C71.4158 52.1587 71.3925 52.7104 71.5803 53.2058C71.9923 54.2946 73.094 54.7399 74.1877 54.5828Z" fill="#0D4F92"/>
<path d="M69.4188 56.7607C71.2598 56.4826 72.9736 57.7603 73.2333 59.6044C73.4927 61.4478 72.1982 63.1487 70.3524 63.3906C68.532 63.6279 66.8595 62.3555 66.6034 60.538C66.3475 58.7198 67.6033 57.0346 69.4188 56.7607ZM71.9315 59.5722C71.6522 58.4526 70.5138 57.7753 69.3974 58.0644C68.2938 58.3492 67.6263 59.471 67.9022 60.5771C68.1779 61.6827 69.2936 62.3601 70.4022 62.0937C71.5237 61.8242 72.2108 60.6913 71.9315 59.5722Z" fill="#0D4F92"/>
<path d="M22.3937 3.44141C22.4666 3.5147 22.5074 3.59617 22.5587 3.68653C23.2712 4.94268 23.9527 6.21239 24.692 7.45398C25.0282 8.01846 25.3888 8.64702 25.5582 9.28332C25.6966 9.79334 25.6968 10.3309 25.5587 10.841C25.0724 12.6387 23.0177 13.7866 21.2312 13.2766C20.752 13.1404 20.3156 12.8837 19.9637 12.531C19.2904 11.8557 17.468 8.43584 16.9166 7.45951L16.5156 6.7558C17.0132 6.49613 17.5722 6.16058 18.0658 5.87825C19.0618 7.60052 20.0565 9.60076 21.2013 11.2271C21.9711 12.1777 23.6199 11.514 23.8479 10.4778C24.0472 9.57246 23.1155 8.2828 22.6648 7.49389L20.8491 4.3146C21.3435 4.0192 21.8883 3.72502 22.3937 3.44141Z" fill="#0D4F92"/>
<path d="M74.9619 41.9553C75.2043 41.9371 75.4663 41.9436 75.708 41.9759C79.3362 42.4597 78.6869 45.2099 78.3389 47.8421C77.6035 47.7856 76.7461 47.6641 76.001 47.5794C74.6267 47.4038 73.2517 47.2376 71.875 47.0794C72.0776 44.607 71.9897 42.3562 74.9619 41.9553ZM74.7979 43.2913C73.2526 43.625 73.3057 44.589 73.167 45.9046C74.1915 46.017 75.2166 46.1372 76.2393 46.2669L77.3438 46.4016C77.4579 45.6372 77.663 44.7138 77.1572 44.0432C76.609 43.3167 75.6345 43.2261 74.7979 43.2913Z" fill="#0D4F92"/>
<path d="M6.52344 42.0527C6.59617 42.9976 6.9511 44.8072 6.66016 45.6025C6.47866 46.1119 6.08931 46.5207 5.58887 46.7256C5.03868 46.958 4.41813 46.9629 3.86426 46.7393C3.2654 46.4935 2.97438 46.1248 2.72656 45.5615L0.515625 47.5C0.502966 47.1481 0.447693 46.781 0.40332 46.4297C0.393581 46.3624 0.350446 46.0179 0.390625 45.959C0.716377 45.4816 2.63379 44.4215 2.4668 43.8555C2.15497 43.64 0.591685 43.9163 0.136719 43.9697C0.0860152 43.532 0.0402682 43.0931 0 42.6543C2.12108 42.4126 4.24371 42.1824 6.36719 41.9629L6.4375 41.9609L6.52344 42.0527ZM5.42676 43.4346C5.21541 43.3755 5.05316 43.4191 4.83398 43.4492C4.41111 43.4972 3.92393 43.5407 3.50879 43.6084C3.61765 44.3525 3.53723 45.2205 4.30469 45.5703C5.66923 45.6844 5.92528 44.3032 5.42676 43.4346Z" fill="#0D4F92"/>
<path d="M11.752 58.4453C12.048 58.6659 13.6386 60.8798 13.7637 61.4287C13.8834 61.9468 13.7783 62.4913 13.4746 62.9277C13.119 63.4495 12.5626 63.8005 11.9385 63.8975C11.2935 63.9919 10.8584 63.8192 10.3584 63.4541C10.0909 64.3651 9.74676 65.3662 9.4541 66.2734C9.23123 65.9224 9.03632 65.6789 8.7832 65.3506C8.59263 65.1032 8.56928 65.0751 8.60547 64.8174C8.83926 64.1735 9.08928 63.5092 9.29785 62.8555C9.37796 62.6044 9.51286 62.226 9.19434 62.1406C8.71191 62.2624 7.77678 63.0655 7.32617 63.416C7.10452 63.0779 6.7898 62.6702 6.54688 62.3369C8.25556 61.122 10.063 59.7118 11.752 58.4453ZM10.0527 61.3574C10.4023 61.8343 10.7197 62.3475 11.2227 62.6562C11.9258 62.741 12.3267 62.4851 12.4658 61.834C12.5641 61.3736 11.93 60.344 11.5801 60.2188L10.0527 61.3574Z" fill="#0D4F92"/>
<path d="M34.7728 73.1445L35.9861 73.2151C36.4868 74.422 37.464 76.2754 38.0516 77.4823C38.0955 76.1857 38.2109 74.6786 38.3175 73.379L39.6194 73.457C39.485 75.6382 39.3389 77.8187 39.1823 79.998C38.8005 79.9845 38.3861 79.9495 38.0023 79.9237C37.3087 78.4903 36.6022 77.0624 35.883 75.6418C35.8748 76.7966 35.7297 78.5885 35.6195 79.7586C35.207 79.7475 34.7438 79.707 34.3281 79.6806C34.4236 77.6818 34.5685 75.1348 34.7728 73.1445Z" fill="#0D4F92"/>
<path d="M43.7581 0C44.3517 0.100003 44.9471 0.191227 45.5432 0.273672C45.1172 2.56422 44.7599 5.15263 44.3879 7.47554C45.235 7.55387 46.8028 7.84547 47.6873 7.98451C47.6419 8.46507 47.5302 9.06527 47.4528 9.55086C45.8249 9.27946 44.0257 8.97147 42.3984 8.75728C42.779 5.86039 43.3959 2.8894 43.7581 0Z" fill="#0D4F92"/>
<path d="M64.7312 62.8906L64.8933 62.9133C65.0161 63.1227 64.9031 63.8747 64.8761 64.1424L64.6907 64.162C64.5274 64.1786 64.3856 64.1902 64.2254 64.2363C63.7006 64.3861 63.2598 64.7458 63.0082 65.2308C62.7375 65.7587 62.7264 66.3511 62.932 66.903C63.1377 67.469 63.5643 67.9276 64.1137 68.1744C66.4899 69.2334 67.6623 66.1596 66.7483 65.7986C66.4494 65.9374 65.7189 66.7324 65.4451 67.0117L64.6821 66.2302C65.4525 65.5052 66.2118 64.7685 66.9601 64.0202C67.0356 63.9969 67.0135 64.011 67.113 64.0368C68.2535 65.2437 68.7188 66.7342 67.6722 68.1867C67.1344 68.943 66.3143 69.4507 65.3973 69.5943C64.5072 69.7281 63.6011 69.4986 62.8817 68.9577C62.139 68.388 61.6571 67.5427 61.5454 66.6133C61.4422 65.7158 61.7056 64.8152 62.2752 64.1147C62.9333 63.3025 63.7215 62.9895 64.7312 62.8906Z" fill="#0D4F92"/>
<path d="M44.7338 72.8988C45.6226 72.8877 46.1505 73.1462 46.8712 73.6097L46.0339 74.5446C45.4692 74.2156 44.9357 74.0154 44.2728 74.1953C43.7486 74.3426 43.306 74.6944 43.0439 75.172C42.7523 75.7006 42.6829 76.3243 42.8524 76.9044C43.317 78.511 45.498 79.1132 46.4961 77.5883C46.5821 77.4569 46.6545 77.1923 46.6097 77.0346C46.3642 76.8952 45.1408 77.1672 44.8025 77.2273L44.6485 76.1506L45.9161 75.9664L47.9289 75.6809C48.0117 76.6687 47.9755 77.7154 47.334 78.522C46.2175 79.9266 44.0045 79.9794 42.6713 78.8867C41.985 78.3219 41.5535 77.506 41.473 76.6208C41.265 74.5152 42.7099 73.102 44.7338 72.8988Z" fill="#0D4F92"/>
<path d="M24.9486 70.1328C25.3561 70.3041 25.7678 70.4655 26.1832 70.6166L25.1611 73.1329C25.9191 73.4134 26.6996 73.7437 27.4512 74.0494C27.7252 73.2581 28.1295 72.3097 28.4414 71.5177C28.8276 71.6933 29.2865 71.8677 29.6839 72.0297C28.9108 73.6565 27.9508 76.3221 27.2606 78.0606C27.114 78.0753 26.2143 77.6917 26.0203 77.6137C26.3396 76.7843 26.6713 75.9599 27.0154 75.1403C26.2539 74.8475 25.4974 74.5412 24.7465 74.2219C24.4055 74.9997 24.0651 75.9114 23.7455 76.7082L22.5234 76.2048C23.3492 74.2011 24.1456 72.1482 24.9486 70.1328Z" fill="#0D4F92"/>
<path d="M15.6747 63.3398C15.9212 63.4798 18.379 65.8169 18.7172 66.1343L17.8976 66.9827C17.2573 66.3424 16.5336 65.696 15.8648 65.079C15.5135 65.486 15.184 65.8237 14.8091 66.2055C15.2585 66.6874 16.1004 67.4271 16.6106 67.8765L15.8007 68.7605C15.4995 68.4738 14.2454 67.2252 13.9683 67.1552L13.8505 67.273L12.9961 68.1767C13.6241 68.6875 14.5075 69.5567 15.1255 70.1264C14.8381 70.4192 14.6005 70.6844 14.331 70.9938C13.3064 70.0331 12.2755 69.0791 11.2383 68.1319C12.6624 66.6739 14.3177 64.8647 15.6747 63.3398Z" fill="#0D4F92"/>
<path d="M7.27277 48.2031L7.35171 48.2093C7.46938 48.3075 8.45283 51.6919 8.57296 52.0903L7.44538 52.4482C7.24435 51.625 6.90281 50.5887 6.65825 49.7544C6.13581 49.9263 5.6799 50.0675 5.14666 50.2118C5.39895 50.9595 5.63718 51.7981 5.87811 52.5611L4.72912 52.9L4.52403 52.2014C4.43895 51.9129 4.14511 50.7121 3.93413 50.5973L2.61516 50.9883C2.88556 51.9043 3.16621 52.8177 3.45711 53.7269L2.33396 54.0848C1.94613 52.7797 1.54038 51.3561 1.10547 50.0743C3.07229 49.4284 5.27679 48.8066 7.27277 48.2031Z" fill="#0D4F92"/>
<path d="M20.0077 67.6657C21.8718 67.5583 23.4499 69.0255 22.484 70.9427C22.1551 70.6817 21.8447 70.5553 21.4743 70.2348C21.3447 69.9371 21.4923 69.8033 21.4633 69.5215C21.4 68.9064 20.2263 68.6142 19.9046 69.155C19.6435 69.6621 20.3316 70.4386 20.6577 70.8045C21.8439 72.1342 21.7229 73.812 19.7277 74.2509C18.0989 74.2067 16.6316 73.0053 16.9553 71.2103C16.988 71.0286 17.1277 70.9586 17.2737 70.8862C17.5952 71.0531 17.8514 71.241 18.1526 71.443C18.3786 71.605 18.1605 71.9243 18.2395 72.1968C18.4258 72.8396 19.5807 73.443 20.0042 72.7045C20.2672 72.1704 19.6355 71.4522 19.3021 71.0759C18.1279 69.7523 18.123 68.2434 20.0077 67.6657Z" fill="#0D4F92"/>
<path d="M52.8323 2.06641L54.5222 2.69478C53.4443 5.41291 52.4732 8.2451 51.4075 10.9824C51.1847 10.9528 50.0301 10.4789 49.7422 10.3726C50.787 7.64913 51.8385 4.80694 52.8323 2.06641Z" fill="#0D4F92"/>
<path d="M9.16115 53.5977C9.31265 53.6989 10.8219 56.7985 11.0136 57.1816L9.96222 57.7218C9.68427 57.0496 9.0994 55.9691 8.75479 55.2748L7.32631 55.9924C7.65453 56.5812 8.00099 57.3062 8.3119 57.9158L7.39647 58.3928C7.33773 58.421 7.37769 58.4087 7.27125 58.3903C6.96138 57.8771 6.58221 57.0612 6.3053 56.5044L3.95513 57.6923L3.35547 56.5241C5.15925 55.5517 7.30974 54.5283 9.16115 53.5977Z" fill="#0D4F92"/>
<path d="M57.5573 68.1445L57.6051 68.1574C57.6935 68.2986 57.1791 72.0059 57.1233 72.4448C57.5628 73.3123 58.0453 74.1963 58.5007 75.0582L57.3375 75.6813C56.8802 74.8016 56.4137 73.9268 55.9379 73.0575L55.2375 72.6947C54.1707 72.1526 53.0989 71.6198 52.0234 71.0961L53.4083 70.3343C54.2793 70.8137 55.1455 71.3018 56.0073 71.7978C56.1344 70.9052 56.2099 69.7333 56.2878 68.8174L57.5573 68.1445Z" fill="#0D4F92"/>
<path d="M49.8879 71.7109L49.9665 71.7472C50.1604 72.1572 50.4471 73.0713 50.6036 73.5281L51.7141 76.7817C52.4347 76.5011 53.3267 76.2206 54.0688 75.9652L54.4316 77.0567C54.0584 77.2046 53.6324 77.3428 53.2499 77.476L50.8412 78.3017C50.754 77.9947 50.6454 77.6835 50.5386 77.3821C49.9198 75.6405 49.3618 73.8651 48.7148 72.1345L49.8879 71.7109Z" fill="#0D4F92"/>
<path d="M31.5382 72.4219C31.9406 72.5324 32.4289 72.6312 32.8414 72.7264C32.3141 74.6454 31.8295 77.1292 31.3842 79.1084C30.9768 79.0292 30.5035 78.9058 30.0938 78.81C30.6044 76.7682 31.0731 74.4901 31.5382 72.4219Z" fill="#0D4F92"/>
<path d="M75.8051 33.5711C76.3619 33.406 76.9475 33.7226 77.1144 34.2789C77.2808 34.8353 76.9659 35.4216 76.4104 35.5901C75.8524 35.7592 75.2625 35.4427 75.0955 34.884C74.9279 34.3253 75.2459 33.7368 75.8051 33.5711Z" fill="#0D4F92"/>
<path d="M2.54338 33.566C3.10523 33.4018 3.69317 33.7271 3.85253 34.2904C4.01194 34.8536 3.68163 35.4388 3.11708 35.5934C2.55934 35.7462 1.98269 35.4206 1.82524 34.8641C1.66773 34.3076 1.98828 33.7282 2.54338 33.566Z" fill="#0D4F92"/>
</svg>
