<svg width="78" height="78" viewBox="0 0 78 78" fill="none" xmlns="http://www.w3.org/2000/svg">
<path d="M39.0031 2.16038C59.3155 2.16038 75.8457 18.6845 75.8457 39.0031C75.8457 59.3216 59.3216 75.8457 39.0031 75.8457C18.6845 75.8457 2.16038 59.3155 2.16038 39.0031C2.16038 18.6906 18.6845 2.16038 39.0031 2.16038ZM39.0031 0C17.4605 0 0 17.4605 0 39.0031C0 60.5456 17.4605 78 39.0031 78C60.5456 78 78 60.5395 78 39.0031C78 17.4666 60.5395 0 39.0031 0Z" fill="#0D4F92"/>
<path d="M43.0352 13.7656C43.0352 22.1746 34.9629 22.1746 34.9629 30.5896C34.9629 39.0047 43.0352 38.9986 43.0352 47.4136C43.0352 55.8287 34.9629 55.8226 34.9629 64.2376" stroke="#0D4F92" stroke-width="2.16038" stroke-miterlimit="10" stroke-linecap="round"/>
<path d="M57.1476 20.7266C57.1476 26.816 51.2969 26.816 51.2969 32.9116C51.2969 39.0071 57.1476 39.001 57.1476 45.0966C57.1476 51.1922 51.2969 51.186 51.2969 57.2816" stroke="#0D4F92" stroke-width="2.16038" stroke-miterlimit="10" stroke-linecap="round"/>
<path d="M26.6945 20.7266C26.6945 26.816 20.8438 26.816 20.8438 32.9116C20.8438 39.0071 26.6945 39.001 26.6945 45.0966C26.6945 51.1922 20.8438 51.186 20.8438 57.2816" stroke="#0D4F92" stroke-width="2.16038" stroke-miterlimit="10" stroke-linecap="round"/>
</svg>
