<svg width="140" height="140" viewBox="0 0 140 140" fill="none" xmlns="http://www.w3.org/2000/svg">
<rect width="140" height="140" fill="#B8DAF9"/>
<g clip-path="url(#clip0_110_14844)">
<path d="M63.0293 35.2307V39.3407L60.5993 41.1607C56.2993 44.3807 53.8893 48.9407 53.9893 53.7007C54.0393 56.2407 54.0893 59.1907 54.0893 62.1307V105.631C54.0893 108.221 56.6693 110.321 59.8493 110.321H73.3193H79.6193C82.7993 110.321 85.3793 108.221 85.3793 105.631V62.1307C85.3793 59.2007 85.4193 56.2507 85.4793 53.7007C85.5793 48.9407 83.1793 44.3807 78.8693 41.1607L76.4393 39.3407V37.8207V37.2907V35.2207" stroke="#0D4F92" stroke-width="2" stroke-miterlimit="10"/>
<path d="M76.5693 28H62.9193C62.2897 28 61.7793 28.5104 61.7793 29.14V34.09C61.7793 34.7196 62.2897 35.23 62.9193 35.23H76.5693C77.1989 35.23 77.7093 34.7196 77.7093 34.09V29.14C77.7093 28.5104 77.1989 28 76.5693 28Z" stroke="#0D4F92" stroke-width="2" stroke-miterlimit="10"/>
<path d="M69.4607 48.6391C76.773 48.6391 82.7007 47.5154 82.7007 46.1291C82.7007 44.7429 76.773 43.6191 69.4607 43.6191C62.1485 43.6191 56.2207 44.7429 56.2207 46.1291C56.2207 47.5154 62.1485 48.6391 69.4607 48.6391Z" stroke="#0D4F92" stroke-width="2" stroke-miterlimit="10"/>
<path d="M59.0195 74.3694C59.0195 74.3694 63.5995 77.6694 69.9295 75.2494C76.2695 72.8294 80.1395 75.2494 80.1395 75.2494" stroke="#0D4F92" stroke-width="2" stroke-miterlimit="10" stroke-linecap="round"/>
<path d="M59.0195 64.8401C59.0195 64.8401 63.5995 68.1401 69.9295 65.7201C76.2695 63.3001 80.1395 65.7201 80.1395 65.7201" stroke="#0D4F92" stroke-width="2" stroke-miterlimit="10" stroke-linecap="round"/>
<path d="M59.6289 83.9001C59.6289 83.9001 63.9389 87.0001 69.9089 84.7301C75.8789 82.4501 79.5289 84.7301 79.5289 84.7301" stroke="#0D4F92" stroke-width="2" stroke-miterlimit="10" stroke-linecap="round"/>
<path d="M59.6289 93.3201C59.6289 93.3201 63.9389 96.4201 69.9089 94.1501C75.8789 91.8701 79.5289 94.1501 79.5289 94.1501" stroke="#0D4F92" stroke-width="2" stroke-miterlimit="10" stroke-linecap="round"/>
</g>
<defs>
<clipPath id="clip0_110_14844">
<rect width="33.5" height="84.32" fill="white" transform="translate(53 27)"/>
</clipPath>
</defs>
</svg>
