<svg width="140" height="140" viewBox="0 0 140 140" fill="none" xmlns="http://www.w3.org/2000/svg">
<rect width="140" height="140" fill="#CBF6F2"/>
<path d="M70.0031 33.1604C90.3155 33.1604 106.846 49.6845 106.846 70.0031C106.846 90.3216 90.3155 106.846 70.0031 106.846C49.6906 106.846 33.1604 90.3155 33.1604 70.0031C33.1604 49.6906 49.6845 33.1604 70.0031 33.1604ZM70.0031 31C48.4605 31 31 48.4605 31 70.0031C31 91.5456 48.4605 109 70.0031 109C91.5456 109 109.006 91.5395 109.006 70.0031C109.006 48.4666 91.5395 31 70.0031 31Z" fill="#0D4F92"/>
<path d="M92.0358 81.265C92.0358 86.2222 88.021 90.2369 83.0638 90.2369C78.1065 90.2369 74.0918 86.2161 74.0918 81.265C74.0918 76.3138 78.1065 72.293 83.0638 72.293C88.021 72.293 92.0358 76.3138 92.0358 81.265Z" stroke="#0D4F92" stroke-width="2.16038" stroke-linecap="round" stroke-linejoin="round"/>
<path d="M66.8258 88.039C67.1502 90.7992 65.1796 93.3023 62.4194 93.6266C59.6593 93.951 57.1623 91.9803 56.8318 89.2202C56.5074 86.46 58.4781 83.957 61.2382 83.6326C63.9984 83.3082 66.4954 85.2789 66.8258 88.039Z" stroke="#0D4F92" stroke-width="2.16038" stroke-linecap="round" stroke-linejoin="round"/>
<path d="M72.3223 64.2266C72.3223 71.1667 66.6979 76.791 59.7578 76.791C52.8177 76.791 47.1934 71.1667 47.1934 64.2266C47.1934 57.2864 52.8177 51.6621 59.7578 51.6621C66.6979 51.6621 72.3223 57.2864 72.3223 64.2266Z" stroke="#0D4F92" stroke-width="2.16038" stroke-linecap="round" stroke-linejoin="round"/>
<path d="M52.4082 64.2252C52.4082 60.1676 55.7008 56.875 59.7584 56.875" stroke="#0D4F92" stroke-width="2.16038" stroke-linecap="round" stroke-linejoin="round"/>
<path d="M76.7221 47.1821C76.8996 48.6877 75.8224 50.0524 74.3169 50.2299C72.8114 50.4074 71.4466 49.3303 71.2691 47.8247C71.0917 46.3192 72.1688 44.9544 73.6743 44.7769C75.1798 44.5995 76.5446 45.6766 76.7221 47.1821Z" fill="#0D4F92"/>
<path d="M78.2695 60.6152H81.6968" stroke="#0D4F92" stroke-width="2.16038" stroke-linecap="round" stroke-linejoin="round"/>
<path d="M87.8066 60.6152H91.2277" stroke="#0D4F92" stroke-width="2.16038" stroke-linecap="round" stroke-linejoin="round"/>
<path d="M88.0512 66.3371L86.3438 63.375" stroke="#0D4F92" stroke-width="2.16038" stroke-linecap="round" stroke-linejoin="round"/>
<path d="M81.2344 66.3371L82.948 63.375" stroke="#0D4F92" stroke-width="2.16038" stroke-linecap="round" stroke-linejoin="round"/>
<path d="M88.0512 54.7637L86.3438 57.7258" stroke="#0D4F92" stroke-width="2.16038" stroke-linecap="round" stroke-linejoin="round"/>
<path d="M81.2344 54.7637L82.948 57.7258" stroke="#0D4F92" stroke-width="2.16038" stroke-linecap="round" stroke-linejoin="round"/>
</svg>
