<svg width="140" height="140" viewBox="0 0 140 140" fill="none" xmlns="http://www.w3.org/2000/svg">
<rect width="140" height="140" fill="#FCCCD5"/>
<path d="M70.0031 33.1604C90.3155 33.1604 106.846 49.6845 106.846 70.0031C106.846 90.3216 90.3216 106.846 70.0031 106.846C49.6845 106.846 33.1604 90.3155 33.1604 70.0031C33.1604 49.6906 49.6845 33.1604 70.0031 33.1604ZM70.0031 31C48.4605 31 31 48.4605 31 70.0031C31 91.5456 48.4605 109 70.0031 109C91.5456 109 109 91.5395 109 70.0031C109 48.4666 91.5395 31 70.0031 31Z" fill="#0D4F92"/>
<path d="M74.0352 44.7637C74.0352 53.1726 65.9629 53.1726 65.9629 61.5877C65.9629 70.0027 74.0352 69.9966 74.0352 78.4117C74.0352 86.8268 65.9629 86.8206 65.9629 95.2357" stroke="#0D4F92" stroke-width="2.16038" stroke-miterlimit="10" stroke-linecap="round"/>
<path d="M88.1476 51.7285C88.1476 57.818 82.2969 57.818 82.2969 63.9135C82.2969 70.0091 88.1476 70.003 88.1476 76.0985C88.1476 82.1941 82.2969 82.188 82.2969 88.2836" stroke="#0D4F92" stroke-width="2.16038" stroke-miterlimit="10" stroke-linecap="round"/>
<path d="M57.6945 51.7285C57.6945 57.818 51.8438 57.818 51.8438 63.9135C51.8438 70.0091 57.6945 70.003 57.6945 76.0985C57.6945 82.1941 51.8438 82.188 51.8438 88.2836" stroke="#0D4F92" stroke-width="2.16038" stroke-miterlimit="10" stroke-linecap="round"/>
</svg>
